<mxfile host="Electron" agent="Mozilla/5.0 (Windows NT 10.0; Win64; x64) AppleWebKit/537.36 (KHTML, like Gecko) draw.io/26.0.16 Chrome/132.0.6834.196 Electron/34.2.0 Safari/537.36" version="26.0.16">
  <diagram name="Page-1" id="QHDNp_NI4Px7WVf-w2n4">
    <mxGraphModel dx="1050" dy="635" grid="1" gridSize="10" guides="1" tooltips="1" connect="1" arrows="1" fold="1" page="1" pageScale="1" pageWidth="850" pageHeight="1100" math="0" shadow="0">
      <root>
        <mxCell id="0" />
        <mxCell id="1" parent="0" />
        <mxCell id="c1HB2mDKfkR8CtvX2i9f-44" value="" style="rounded=0;whiteSpace=wrap;html=1;" parent="1" vertex="1">
          <mxGeometry x="502.5" y="560" width="160" height="50" as="geometry" />
        </mxCell>
        <mxCell id="c1HB2mDKfkR8CtvX2i9f-39" value="Socket" style="rounded=1;whiteSpace=wrap;html=1;" parent="1" vertex="1">
          <mxGeometry x="340" y="570" width="70" height="30" as="geometry" />
        </mxCell>
        <mxCell id="3jTt2L_bUDyzOccdH3Hi-2" value="" style="rounded=1;whiteSpace=wrap;html=1;fillColor=#f5f5f5;fontColor=#333333;strokeColor=#666666;" parent="1" vertex="1">
          <mxGeometry x="220" y="180" width="520" height="50" as="geometry" />
        </mxCell>
        <mxCell id="3jTt2L_bUDyzOccdH3Hi-4" value="接口层(jia.h)" style="text;html=1;align=center;verticalAlign=middle;whiteSpace=wrap;rounded=0;" parent="1" vertex="1">
          <mxGeometry x="220" y="190" width="80" height="30" as="geometry" />
        </mxCell>
        <mxCell id="3jTt2L_bUDyzOccdH3Hi-5" value="RMA" style="rounded=0;whiteSpace=wrap;html=1;fillColor=#fff2cc;strokeColor=#d6b656;" parent="1" vertex="1">
          <mxGeometry x="580" y="190" width="50" height="30" as="geometry" />
        </mxCell>
        <mxCell id="3jTt2L_bUDyzOccdH3Hi-6" value="Init" style="rounded=0;whiteSpace=wrap;html=1;fillColor=#fff2cc;strokeColor=#d6b656;" parent="1" vertex="1">
          <mxGeometry x="370" y="190" width="50" height="30" as="geometry" />
        </mxCell>
        <mxCell id="3jTt2L_bUDyzOccdH3Hi-8" value="Syn" style="rounded=0;whiteSpace=wrap;html=1;fillColor=#fff2cc;strokeColor=#d6b656;" parent="1" vertex="1">
          <mxGeometry x="510" y="190" width="50" height="30" as="geometry" />
        </mxCell>
        <mxCell id="3jTt2L_bUDyzOccdH3Hi-9" value="Alloc" style="rounded=0;whiteSpace=wrap;html=1;fillColor=#fff2cc;strokeColor=#d6b656;" parent="1" vertex="1">
          <mxGeometry x="440" y="190" width="50" height="30" as="geometry" />
        </mxCell>
        <mxCell id="3jTt2L_bUDyzOccdH3Hi-11" value="MPI" style="rounded=0;whiteSpace=wrap;html=1;fillColor=#fff2cc;strokeColor=#d6b656;" parent="1" vertex="1">
          <mxGeometry x="650" y="190" width="50" height="30" as="geometry" />
        </mxCell>
        <mxCell id="3jTt2L_bUDyzOccdH3Hi-12" value="" style="rounded=1;whiteSpace=wrap;html=1;fillColor=#dae8fc;strokeColor=#6c8ebf;" parent="1" vertex="1">
          <mxGeometry x="220" y="100" width="520" height="50" as="geometry" />
        </mxCell>
        <mxCell id="3jTt2L_bUDyzOccdH3Hi-15" value="" style="endArrow=none;dashed=1;html=1;dashPattern=1 3;strokeWidth=2;rounded=0;" parent="1" edge="1">
          <mxGeometry width="50" height="50" relative="1" as="geometry">
            <mxPoint x="710" y="204.6" as="sourcePoint" />
            <mxPoint x="730" y="204.6" as="targetPoint" />
          </mxGeometry>
        </mxCell>
        <mxCell id="3jTt2L_bUDyzOccdH3Hi-16" value="应用层(apps/)" style="text;html=1;align=center;verticalAlign=middle;whiteSpace=wrap;rounded=0;" parent="1" vertex="1">
          <mxGeometry x="225" y="110" width="80" height="30" as="geometry" />
        </mxCell>
        <mxCell id="c1HB2mDKfkR8CtvX2i9f-1" value="ep" style="rounded=1;whiteSpace=wrap;html=1;fillColor=#d0cee2;strokeColor=#56517e;" parent="1" vertex="1">
          <mxGeometry x="320" y="115" width="30" height="20" as="geometry" />
        </mxCell>
        <mxCell id="c1HB2mDKfkR8CtvX2i9f-2" value="is" style="rounded=1;whiteSpace=wrap;html=1;fillColor=#d0cee2;strokeColor=#56517e;" parent="1" vertex="1">
          <mxGeometry x="360" y="115" width="30" height="20" as="geometry" />
        </mxCell>
        <mxCell id="c1HB2mDKfkR8CtvX2i9f-3" value="lu" style="rounded=1;whiteSpace=wrap;html=1;fillColor=#d0cee2;strokeColor=#56517e;" parent="1" vertex="1">
          <mxGeometry x="400" y="115" width="30" height="20" as="geometry" />
        </mxCell>
        <mxCell id="c1HB2mDKfkR8CtvX2i9f-4" value="water" style="rounded=1;whiteSpace=wrap;html=1;fillColor=#d0cee2;strokeColor=#56517e;" parent="1" vertex="1">
          <mxGeometry x="440" y="115" width="30" height="20" as="geometry" />
        </mxCell>
        <mxCell id="c1HB2mDKfkR8CtvX2i9f-5" value="mm" style="rounded=1;whiteSpace=wrap;html=1;fillColor=#d0cee2;strokeColor=#56517e;" parent="1" vertex="1">
          <mxGeometry x="480" y="115" width="30" height="20" as="geometry" />
        </mxCell>
        <mxCell id="c1HB2mDKfkR8CtvX2i9f-6" value="pi" style="rounded=1;whiteSpace=wrap;html=1;fillColor=#d0cee2;strokeColor=#56517e;" parent="1" vertex="1">
          <mxGeometry x="520" y="115" width="30" height="20" as="geometry" />
        </mxCell>
        <mxCell id="c1HB2mDKfkR8CtvX2i9f-7" value="tsp" style="rounded=1;whiteSpace=wrap;html=1;fillColor=#d0cee2;strokeColor=#56517e;" parent="1" vertex="1">
          <mxGeometry x="560" y="115" width="30" height="20" as="geometry" />
        </mxCell>
        <mxCell id="c1HB2mDKfkR8CtvX2i9f-9" value="sor" style="rounded=1;whiteSpace=wrap;html=1;fillColor=#d0cee2;strokeColor=#56517e;" parent="1" vertex="1">
          <mxGeometry x="600" y="115" width="30" height="20" as="geometry" />
        </mxCell>
        <mxCell id="c1HB2mDKfkR8CtvX2i9f-10" value="jacobi" style="rounded=1;whiteSpace=wrap;html=1;fillColor=#d0cee2;strokeColor=#56517e;" parent="1" vertex="1">
          <mxGeometry x="640" y="115" width="30" height="20" as="geometry" />
        </mxCell>
        <mxCell id="c1HB2mDKfkR8CtvX2i9f-11" value="" style="endArrow=none;dashed=1;html=1;dashPattern=1 3;strokeWidth=2;rounded=0;" parent="1" edge="1">
          <mxGeometry width="50" height="50" relative="1" as="geometry">
            <mxPoint x="690" y="124.61999999999999" as="sourcePoint" />
            <mxPoint x="710" y="124.61999999999999" as="targetPoint" />
          </mxGeometry>
        </mxCell>
        <mxCell id="c1HB2mDKfkR8CtvX2i9f-12" value="" style="rounded=1;whiteSpace=wrap;html=1;" parent="1" vertex="1">
          <mxGeometry x="170" y="250" width="630" height="150" as="geometry" />
        </mxCell>
        <mxCell id="c1HB2mDKfkR8CtvX2i9f-14" value="全局变量" style="rounded=0;whiteSpace=wrap;html=1;fillColor=#fff2cc;strokeColor=#d6b656;" parent="1" vertex="1">
          <mxGeometry x="305" y="190" width="50" height="30" as="geometry" />
        </mxCell>
        <mxCell id="c1HB2mDKfkR8CtvX2i9f-15" value="系统配置模块" style="rounded=0;whiteSpace=wrap;html=1;fillColor=#f8cecc;strokeColor=#b85450;" parent="1" vertex="1">
          <mxGeometry x="186" y="280" width="50" height="90" as="geometry" />
        </mxCell>
        <mxCell id="c1HB2mDKfkR8CtvX2i9f-16" value="" style="endArrow=none;html=1;rounded=0;" parent="1" edge="1">
          <mxGeometry width="50" height="50" relative="1" as="geometry">
            <mxPoint x="161" y="162" as="sourcePoint" />
            <mxPoint x="801" y="162" as="targetPoint" />
          </mxGeometry>
        </mxCell>
        <mxCell id="c1HB2mDKfkR8CtvX2i9f-17" value="" style="endArrow=classic;html=1;rounded=0;fontSize=15;strokeWidth=2;" parent="1" edge="1">
          <mxGeometry width="50" height="50" relative="1" as="geometry">
            <mxPoint x="440" y="150" as="sourcePoint" />
            <mxPoint x="440" y="180" as="targetPoint" />
          </mxGeometry>
        </mxCell>
        <mxCell id="c1HB2mDKfkR8CtvX2i9f-20" value="" style="endArrow=classic;html=1;rounded=0;strokeWidth=2;" parent="1" edge="1">
          <mxGeometry width="50" height="50" relative="1" as="geometry">
            <mxPoint x="469" y="150" as="sourcePoint" />
            <mxPoint x="469" y="180" as="targetPoint" />
          </mxGeometry>
        </mxCell>
        <mxCell id="c1HB2mDKfkR8CtvX2i9f-21" value="" style="endArrow=classic;html=1;rounded=0;strokeWidth=2;" parent="1" edge="1">
          <mxGeometry width="50" height="50" relative="1" as="geometry">
            <mxPoint x="495" y="150" as="sourcePoint" />
            <mxPoint x="495" y="180" as="targetPoint" />
          </mxGeometry>
        </mxCell>
        <mxCell id="c1HB2mDKfkR8CtvX2i9f-22" value="锁管理&lt;div&gt;模块&lt;/div&gt;" style="rounded=0;whiteSpace=wrap;html=1;fillColor=#f8cecc;strokeColor=#b85450;" parent="1" vertex="1">
          <mxGeometry x="387" y="280" width="50" height="90" as="geometry" />
        </mxCell>
        <mxCell id="c1HB2mDKfkR8CtvX2i9f-23" value="初始化&lt;div&gt;模块&lt;/div&gt;" style="rounded=0;whiteSpace=wrap;html=1;fillColor=#f8cecc;strokeColor=#b85450;" parent="1" vertex="1">
          <mxGeometry x="252" y="280" width="50" height="90" as="geometry" />
        </mxCell>
        <mxCell id="c1HB2mDKfkR8CtvX2i9f-24" value="消息处理&lt;div&gt;程序&lt;/div&gt;" style="rounded=0;whiteSpace=wrap;html=1;fillColor=#f8cecc;strokeColor=#b85450;" parent="1" vertex="1">
          <mxGeometry x="666" y="280" width="50" height="90" as="geometry" />
        </mxCell>
        <mxCell id="c1HB2mDKfkR8CtvX2i9f-25" value="内存管理模块" style="rounded=0;whiteSpace=wrap;html=1;fillColor=#f8cecc;strokeColor=#b85450;" parent="1" vertex="1">
          <mxGeometry x="319" y="280" width="50" height="90" as="geometry" />
        </mxCell>
        <mxCell id="c1HB2mDKfkR8CtvX2i9f-27" value="UDP&lt;div&gt;&lt;span style=&quot;background-color: transparent; color: light-dark(rgb(0, 0, 0), rgb(255, 255, 255));&quot;&gt;通信&lt;/span&gt;&lt;div&gt;管理模块&lt;/div&gt;&lt;/div&gt;" style="rounded=0;whiteSpace=wrap;html=1;fillColor=#f8cecc;strokeColor=#b85450;" parent="1" vertex="1">
          <mxGeometry x="455" y="280" width="50" height="90" as="geometry" />
        </mxCell>
        <mxCell id="c1HB2mDKfkR8CtvX2i9f-28" value="RDMA&lt;br&gt;&lt;div&gt;通信&lt;/div&gt;&lt;div&gt;管理模块&lt;/div&gt;" style="rounded=0;whiteSpace=wrap;html=1;fillColor=#f8cecc;strokeColor=#b85450;" parent="1" vertex="1">
          <mxGeometry x="525" y="280" width="50" height="90" as="geometry" />
        </mxCell>
        <mxCell id="c1HB2mDKfkR8CtvX2i9f-30" value="统计模块" style="rounded=0;whiteSpace=wrap;html=1;fillColor=#f8cecc;strokeColor=#b85450;" parent="1" vertex="1">
          <mxGeometry x="595" y="280" width="50" height="90" as="geometry" />
        </mxCell>
        <mxCell id="c1HB2mDKfkR8CtvX2i9f-31" value="核心模块层" style="text;html=1;align=center;verticalAlign=middle;whiteSpace=wrap;rounded=0;" parent="1" vertex="1">
          <mxGeometry x="182" y="250" width="80" height="30" as="geometry" />
        </mxCell>
        <mxCell id="c1HB2mDKfkR8CtvX2i9f-32" value="" style="rounded=1;whiteSpace=wrap;html=1;" parent="1" vertex="1">
          <mxGeometry x="220" y="430" width="520" height="120" as="geometry" />
        </mxCell>
        <mxCell id="c1HB2mDKfkR8CtvX2i9f-33" value="通信层" style="text;html=1;align=center;verticalAlign=middle;whiteSpace=wrap;rounded=0;" parent="1" vertex="1">
          <mxGeometry x="220" y="430" width="60" height="30" as="geometry" />
        </mxCell>
        <mxCell id="c1HB2mDKfkR8CtvX2i9f-34" value="" style="rounded=1;whiteSpace=wrap;html=1;fillColor=#bac8d3;strokeColor=#23445d;" parent="1" vertex="1">
          <mxGeometry x="300" y="450" width="150" height="80" as="geometry" />
        </mxCell>
        <mxCell id="c1HB2mDKfkR8CtvX2i9f-35" value="" style="rounded=1;whiteSpace=wrap;html=1;fillColor=#bac8d3;strokeColor=#23445d;" parent="1" vertex="1">
          <mxGeometry x="510" y="450" width="145" height="80" as="geometry" />
        </mxCell>
        <mxCell id="c1HB2mDKfkR8CtvX2i9f-38" value="" style="endArrow=none;html=1;rounded=0;" parent="1" edge="1">
          <mxGeometry width="50" height="50" relative="1" as="geometry">
            <mxPoint x="160" y="600" as="sourcePoint" />
            <mxPoint x="800" y="600" as="targetPoint" />
          </mxGeometry>
        </mxCell>
        <mxCell id="c1HB2mDKfkR8CtvX2i9f-40" value="Librdmacm" style="rounded=1;whiteSpace=wrap;html=1;" parent="1" vertex="1">
          <mxGeometry x="507.5" y="570" width="70" height="30" as="geometry" />
        </mxCell>
        <mxCell id="c1HB2mDKfkR8CtvX2i9f-41" value="Libibverbs" style="rounded=1;whiteSpace=wrap;html=1;" parent="1" vertex="1">
          <mxGeometry x="585" y="570" width="70" height="30" as="geometry" />
        </mxCell>
        <mxCell id="c1HB2mDKfkR8CtvX2i9f-47" value="" style="rounded=0;whiteSpace=wrap;html=1;" parent="1" vertex="1">
          <mxGeometry x="185" y="619" width="590" height="181" as="geometry" />
        </mxCell>
        <mxCell id="c1HB2mDKfkR8CtvX2i9f-48" value="&lt;b&gt;Kernel&lt;/b&gt;" style="text;html=1;align=center;verticalAlign=middle;whiteSpace=wrap;rounded=0;" parent="1" vertex="1">
          <mxGeometry x="181" y="624" width="60" height="30" as="geometry" />
        </mxCell>
        <mxCell id="c1HB2mDKfkR8CtvX2i9f-49" value="" style="shape=curlyBracket;whiteSpace=wrap;html=1;rounded=1;labelPosition=left;verticalLabelPosition=middle;align=right;verticalAlign=middle;" parent="1" vertex="1">
          <mxGeometry x="120" y="100" width="20" height="490" as="geometry" />
        </mxCell>
        <mxCell id="c1HB2mDKfkR8CtvX2i9f-50" value="M-JIAJIA" style="text;html=1;align=center;verticalAlign=middle;resizable=0;points=[];autosize=1;strokeColor=none;fillColor=none;" parent="1" vertex="1">
          <mxGeometry x="57" y="330" width="70" height="30" as="geometry" />
        </mxCell>
        <mxCell id="c1HB2mDKfkR8CtvX2i9f-51" value="TCP/IP 网络协议栈" style="rounded=0;whiteSpace=wrap;html=1;" parent="1" vertex="1">
          <mxGeometry x="290" y="654" width="170" height="66" as="geometry" />
        </mxCell>
        <mxCell id="c1HB2mDKfkR8CtvX2i9f-52" value="设备驱动层" style="rounded=0;whiteSpace=wrap;html=1;" parent="1" vertex="1">
          <mxGeometry x="290" y="740" width="390" height="40" as="geometry" />
        </mxCell>
        <mxCell id="c1HB2mDKfkR8CtvX2i9f-53" value="" style="endArrow=classic;html=1;rounded=0;fontSize=15;strokeWidth=2;" parent="1" edge="1">
          <mxGeometry width="50" height="50" relative="1" as="geometry">
            <mxPoint x="374.6" y="535" as="sourcePoint" />
            <mxPoint x="374.6" y="565" as="targetPoint" />
          </mxGeometry>
        </mxCell>
        <mxCell id="c1HB2mDKfkR8CtvX2i9f-54" value="" style="endArrow=classic;html=1;rounded=0;fontSize=15;strokeWidth=2;" parent="1" edge="1">
          <mxGeometry width="50" height="50" relative="1" as="geometry">
            <mxPoint x="550" y="535" as="sourcePoint" />
            <mxPoint x="550" y="565" as="targetPoint" />
          </mxGeometry>
        </mxCell>
        <mxCell id="c1HB2mDKfkR8CtvX2i9f-55" value="" style="endArrow=classic;html=1;rounded=0;fontSize=15;strokeWidth=2;" parent="1" edge="1">
          <mxGeometry width="50" height="50" relative="1" as="geometry">
            <mxPoint x="619.86" y="535" as="sourcePoint" />
            <mxPoint x="619.86" y="565" as="targetPoint" />
          </mxGeometry>
        </mxCell>
        <mxCell id="c1HB2mDKfkR8CtvX2i9f-56" value="" style="shape=flexArrow;endArrow=classic;html=1;rounded=0;" parent="1" edge="1">
          <mxGeometry width="50" height="50" relative="1" as="geometry">
            <mxPoint x="374" y="600" as="sourcePoint" />
            <mxPoint x="374" y="850" as="targetPoint" />
          </mxGeometry>
        </mxCell>
        <mxCell id="c1HB2mDKfkR8CtvX2i9f-57" value="" style="shape=flexArrow;endArrow=classic;html=1;rounded=0;" parent="1" edge="1">
          <mxGeometry width="50" height="50" relative="1" as="geometry">
            <mxPoint x="585" y="610" as="sourcePoint" />
            <mxPoint x="585" y="850" as="targetPoint" />
          </mxGeometry>
        </mxCell>
        <mxCell id="c1HB2mDKfkR8CtvX2i9f-58" value="内核绕过" style="text;html=1;align=center;verticalAlign=middle;resizable=0;points=[];autosize=1;strokeColor=none;fillColor=none;" parent="1" vertex="1">
          <mxGeometry x="592.5" y="672" width="70" height="30" as="geometry" />
        </mxCell>
        <mxCell id="c1HB2mDKfkR8CtvX2i9f-59" value="" style="sketch=0;pointerEvents=1;shadow=0;dashed=0;html=1;strokeColor=none;fillColor=#505050;labelPosition=center;verticalLabelPosition=bottom;verticalAlign=top;outlineConnect=0;align=center;shape=mxgraph.office.devices.nic;" parent="1" vertex="1">
          <mxGeometry x="358" y="849.5" width="57" height="38" as="geometry" />
        </mxCell>
        <mxCell id="c1HB2mDKfkR8CtvX2i9f-60" value="以太网络" style="text;html=1;align=center;verticalAlign=middle;resizable=0;points=[];autosize=1;strokeColor=none;fillColor=none;" parent="1" vertex="1">
          <mxGeometry x="293" y="853.5" width="70" height="30" as="geometry" />
        </mxCell>
        <mxCell id="c1HB2mDKfkR8CtvX2i9f-62" value="" style="pointerEvents=1;shadow=0;dashed=0;html=1;strokeColor=none;fillColor=#4495D1;labelPosition=center;verticalLabelPosition=bottom;verticalAlign=top;align=center;outlineConnect=0;shape=mxgraph.veeam.2d.network_card;" parent="1" vertex="1">
          <mxGeometry x="563" y="847" width="48.8" height="43" as="geometry" />
        </mxCell>
        <mxCell id="c1HB2mDKfkR8CtvX2i9f-63" value="RDMA 网络" style="text;html=1;align=center;verticalAlign=middle;resizable=0;points=[];autosize=1;strokeColor=none;fillColor=none;" parent="1" vertex="1">
          <mxGeometry x="480" y="853.5" width="90" height="30" as="geometry" />
        </mxCell>
        <mxCell id="c1HB2mDKfkR8CtvX2i9f-64" value="" style="curved=1;endArrow=none;html=1;rounded=0;startFill=0;" parent="1" edge="1">
          <mxGeometry width="50" height="50" relative="1" as="geometry">
            <mxPoint x="315" y="520" as="sourcePoint" />
            <mxPoint x="325" y="460" as="targetPoint" />
            <Array as="points">
              <mxPoint x="335" y="510" />
              <mxPoint x="305" y="470" />
            </Array>
          </mxGeometry>
        </mxCell>
        <mxCell id="c1HB2mDKfkR8CtvX2i9f-73" value="multithread" style="edgeLabel;html=1;align=center;verticalAlign=middle;resizable=0;points=[];" parent="c1HB2mDKfkR8CtvX2i9f-64" vertex="1" connectable="0">
          <mxGeometry x="-0.1109" y="1" relative="1" as="geometry">
            <mxPoint x="9" y="-4" as="offset" />
          </mxGeometry>
        </mxCell>
        <mxCell id="c1HB2mDKfkR8CtvX2i9f-66" value="" style="curved=1;endArrow=none;html=1;rounded=0;startFill=0;" parent="1" edge="1">
          <mxGeometry width="50" height="50" relative="1" as="geometry">
            <mxPoint x="330" y="520" as="sourcePoint" />
            <mxPoint x="340" y="460" as="targetPoint" />
            <Array as="points">
              <mxPoint x="350" y="510" />
              <mxPoint x="320" y="470" />
            </Array>
          </mxGeometry>
        </mxCell>
        <mxCell id="c1HB2mDKfkR8CtvX2i9f-67" value="" style="curved=1;endArrow=none;html=1;rounded=0;startFill=0;" parent="1" edge="1">
          <mxGeometry width="50" height="50" relative="1" as="geometry">
            <mxPoint x="520" y="520" as="sourcePoint" />
            <mxPoint x="530" y="460" as="targetPoint" />
            <Array as="points">
              <mxPoint x="540" y="510" />
              <mxPoint x="510" y="470" />
            </Array>
          </mxGeometry>
        </mxCell>
        <mxCell id="c1HB2mDKfkR8CtvX2i9f-68" value="" style="curved=1;endArrow=none;html=1;rounded=0;startFill=0;" parent="1" edge="1">
          <mxGeometry width="50" height="50" relative="1" as="geometry">
            <mxPoint x="550.5" y="520" as="sourcePoint" />
            <mxPoint x="560.5" y="460" as="targetPoint" />
            <Array as="points">
              <mxPoint x="570.5" y="510" />
              <mxPoint x="540.5" y="470" />
            </Array>
          </mxGeometry>
        </mxCell>
        <mxCell id="c1HB2mDKfkR8CtvX2i9f-69" value="" style="curved=1;endArrow=none;html=1;rounded=0;startFill=0;" parent="1" edge="1">
          <mxGeometry width="50" height="50" relative="1" as="geometry">
            <mxPoint x="346" y="520" as="sourcePoint" />
            <mxPoint x="356" y="460" as="targetPoint" />
            <Array as="points">
              <mxPoint x="366" y="510" />
              <mxPoint x="336" y="470" />
            </Array>
          </mxGeometry>
        </mxCell>
        <mxCell id="c1HB2mDKfkR8CtvX2i9f-70" value="" style="curved=1;endArrow=none;html=1;rounded=0;startFill=0;" parent="1" edge="1">
          <mxGeometry width="50" height="50" relative="1" as="geometry">
            <mxPoint x="534.5" y="520" as="sourcePoint" />
            <mxPoint x="544.5" y="460" as="targetPoint" />
            <Array as="points">
              <mxPoint x="554.5" y="510" />
              <mxPoint x="524.5" y="470" />
            </Array>
          </mxGeometry>
        </mxCell>
        <mxCell id="c1HB2mDKfkR8CtvX2i9f-71" value="UDP" style="text;html=1;align=center;verticalAlign=middle;resizable=0;points=[];autosize=1;strokeColor=none;fillColor=none;" parent="1" vertex="1">
          <mxGeometry x="375" y="475" width="50" height="30" as="geometry" />
        </mxCell>
        <mxCell id="c1HB2mDKfkR8CtvX2i9f-72" value="RDMA" style="text;html=1;align=center;verticalAlign=middle;resizable=0;points=[];autosize=1;strokeColor=none;fillColor=none;" parent="1" vertex="1">
          <mxGeometry x="580.5" y="473" width="60" height="30" as="geometry" />
        </mxCell>
        <mxCell id="dwd8ztVicXdNS0gBFS7G-2" value="配置&lt;div&gt;文件&lt;/div&gt;" style="whiteSpace=wrap;html=1;shape=mxgraph.basic.document;fillColor=#fff2cc;strokeColor=#d6b656;" parent="1" vertex="1">
          <mxGeometry x="165" y="181" width="40" height="45" as="geometry" />
        </mxCell>
        <mxCell id="uEZhkZloBFKjks0-9jLx-1" value="输入&lt;div&gt;队列&lt;/div&gt;" style="rounded=0;whiteSpace=wrap;html=1;" parent="1" vertex="1">
          <mxGeometry x="400" y="400" width="67" height="30" as="geometry" />
        </mxCell>
        <mxCell id="uEZhkZloBFKjks0-9jLx-3" value="输出&lt;div&gt;队列&lt;/div&gt;" style="rounded=0;whiteSpace=wrap;html=1;" parent="1" vertex="1">
          <mxGeometry x="480" y="400" width="70" height="30" as="geometry" />
        </mxCell>
        <mxCell id="7Uxn33sC4u9NnFrhCq_f-1" value="SIGSEGV&lt;div&gt;信号处理&lt;/div&gt;&lt;div&gt;程序&lt;/div&gt;" style="rounded=0;whiteSpace=wrap;html=1;fillColor=#f8cecc;strokeColor=#b85450;" parent="1" vertex="1">
          <mxGeometry x="736" y="280" width="50" height="90" as="geometry" />
        </mxCell>
      </root>
    </mxGraphModel>
  </diagram>
</mxfile>
